<svg xmlns="http://www.w3.org/2000/svg" xmlns:xlink="http://www.w3.org/1999/xlink" version="1.1" id="Layer_1" x="0px" y="0px" viewBox="0 0 752 220.8" style="enable-background:new 0 0 752 220.8;" xml:space="preserve"> <style type="text/css"> .st0{fill:#231F20;} </style> <g> <path class="st0" d="M32.8,40.5h30.7c2.1,0,3.7,0.4,4.8,1.2c1.1,0.8,1.7,1.9,1.7,3.4c0,0.3,0,0.6-0.1,0.9c-0.1,0.4-0.2,0.8-0.3,1.4 L40.4,166.3c-0.1,0.3-0.1,0.7-0.1,1c0,0.3,0,0.8,0,1.6c0,2,0.6,3.5,1.9,4.5c1.3,1.1,3.1,1.7,5.6,1.8l-0.8,3.8H16.6 c-2.2,0-3.9-0.5-5.2-1.6c-1.2-1-1.9-2.5-1.9-4.4c0-0.6,0.1-1.4,0.4-2.4c0-0.2,0-0.3,0-0.4L38.3,52.5c0.2-0.7,0.3-1.2,0.3-1.5 c0-0.3,0-0.5,0-0.8c0-1.6-0.6-2.9-1.9-4c-1.2-1.1-2.9-1.8-5.1-2.1L32.8,40.5z"></path> <path class="st0" d="M154.7,165.2c-0.2,0.7-0.3,1.3-0.4,2c-0.1,0.7-0.1,1.3-0.1,1.9c0,2,0.6,3.4,1.7,4.4c1.1,1,2.9,1.6,5.2,1.7 l-0.6,3.8h-27.3c-2.3,0-4.2-0.6-5.5-1.8c-1.3-1.2-2-2.8-2-4.9c0-0.8,0-1.4,0.1-1.9c0.1-0.5,0.2-1,0.3-1.4l16.8-69 c0.1-0.5,0.2-1,0.3-1.5c0.1-0.6,0.1-1.4,0.1-2.5c0-2.9-1-5.1-3.1-6.6c-2.1-1.5-5.2-2.2-9.5-2.2c-5.6,0-10.3,1.3-14.1,3.9 c-3.8,2.6-6.3,6.1-7.4,10.6l-15.4,63.8c-0.1,0.3-0.2,0.7-0.3,1.3c-0.3,1.4-0.5,2.4-0.5,2.9c0,1.7,0.6,3,1.7,4 c1.1,0.9,2.7,1.4,4.7,1.4l-0.6,3.8h-28c-2.1,0-3.8-0.6-5-1.8c-1.2-1.2-1.8-2.8-1.8-4.9c0-0.5,0-1.1,0.1-1.9 c0.1-0.7,0.2-1.5,0.4-2.2l20.6-86.5c0.2-0.9,0.3-1.7,0.4-2.4c0.1-0.7,0.1-1.3,0.1-1.8c0-1.4-0.5-2.6-1.5-3.5c-1-0.9-2.6-1.5-4.8-2 l1.2-3.8h28c2.3,0,4,0.5,5.1,1.4c1.1,0.9,1.7,2.4,1.7,4.2c0,0.4,0,0.8-0.1,1.4c-0.1,0.5-0.3,1.2-0.5,2l-1.4,6.5 c5.3-6.4,10.5-10.8,15.4-13.3c4.9-2.5,10.9-3.7,18-3.7c8.5,0,15.3,1.5,20.2,4.5c4.9,3,7.4,7,7.4,12.1c0,0.6,0,1.2-0.1,1.9 c-0.1,0.7-0.3,1.4-0.5,2.2L154.7,165.2z"></path> <path class="st0" d="M224.3,48.9h12.4l-4.6,19.3h28.4l-2.6,12.5c-0.6,2.7-1.5,4.6-2.9,5.5c-1.3,0.9-3.7,1.4-7.1,1.4h-9.6 c-4.2,0-7.2,0.6-9,1.9c-1.8,1.3-3.1,3.7-4,7.3l-12,49c-0.4,1.6-0.7,2.9-0.8,3.8c-0.1,0.9-0.2,1.7-0.3,2.4c0,2.3,0.6,4,1.9,5.2 c1.2,1.2,3,1.8,5.4,1.8h9.2c4.6,0,8.2-0.7,10.7-2.2c2.5-1.5,4.6-4,6-7.5h4l-6.7,22.7c-0.7,2.5-2.2,4.3-4.4,5.4 c-2.2,1.1-5.8,1.6-10.6,1.6H195c-4.4,0-7.8-1.2-10.3-3.7c-2.5-2.5-3.8-5.8-3.8-9.9c0-0.8,0.1-1.7,0.2-2.8c0.2-1.1,0.4-2.4,0.7-4 l17-70.9h-10.5l3.6-14.7c7.5-1,14-3.5,19.5-7.5C216.7,61.4,221.1,55.9,224.3,48.9z"></path> <path class="st0" d="M340.4,126.3h-49.3c-1.2,4.7-2.1,8.6-2.6,11.5c-0.5,2.9-0.8,5.2-0.8,6.8c0,5,1.6,8.5,4.9,10.5 c3.3,2,9,3,17.3,3c11.4,0,19.4-0.8,23.9-2.3c4.6-1.5,7.4-4.1,8.7-7.9h3.8c-1,6.6-2.2,12-3.6,16.1c-1.3,4.1-2.9,7-4.6,8.7 c-2.7,2.7-5.9,4.7-9.6,5.8c-3.7,1.1-10.3,1.7-19.8,1.7h-2.2c-18.7,0-31.4-2.1-37.9-6.4c-6.5-4.3-9.8-12-9.8-23.1 c0-4.2,0.8-10.3,2.5-18.3c1.7-8.1,4.2-18.3,7.7-30.8c1.2-4.2,2.6-8.1,4.4-11.7c1.8-3.6,3.7-6.7,5.9-9.3c4-4.7,9.1-8.2,15.3-10.3 c6.1-2.1,14.3-3.2,24.4-3.2c14.4,0,24.8,2.2,31.2,6.6c6.4,4.4,9.6,11.5,9.6,21.4c0,3.6-0.4,7.4-1.2,11.4c-0.8,3.9-1.9,7.4-3.2,10.4 c-1.7,3.7-3.6,6.2-5.7,7.6C347.4,125.7,344.4,126.3,340.4,126.3z M330.5,110.1c0.9-2.5,1.5-4.5,1.9-6.1c0.4-1.6,0.5-3,0.5-4.2 c0-4.3-1.2-7.5-3.7-9.5c-2.4-2-6.2-3.1-11.2-3.1c-5.9,0-10.5,1.7-14,5.2c-3.4,3.5-6.3,9.4-8.6,17.7H330.5z"></path> <path class="st0" d="M378.3,68.2h29.6c2.2,0,3.9,0.5,5.1,1.4c1.2,0.9,1.8,2.3,1.8,4.1c0,0.3-0.1,0.8-0.2,1.5 c-0.1,0.7-0.3,1.4-0.5,2.1l-1.4,6.5c4.1-6.1,7.8-10.2,11-12.4c3.3-2.1,7.3-3.2,12.2-3.2H451l-2.1,10.1c-1.2,5.1-2.7,8.4-4.4,9.8 s-4.8,2-9.3,2h-10.9c-4.2,0-7.7,1.2-10.5,3.5c-2.8,2.3-4.7,5.8-5.9,10.2L393,165.6c-0.1,0.3-0.2,0.7-0.3,1.3 c-0.3,1.4-0.5,2.4-0.5,2.9c0,1.7,0.6,3,1.7,4c1.1,0.9,2.7,1.4,4.7,1.4l-0.6,3.8h-28c-2.1,0-3.8-0.6-5-1.8c-1.2-1.2-1.8-2.8-1.8-4.9 c0-0.5,0-1.1,0.1-1.9c0.1-0.7,0.2-1.5,0.4-2.2l20.6-86.5c0.2-0.9,0.3-1.5,0.3-1.9c0-0.4,0-0.7,0-1.1c0-1.8-0.6-3.2-1.8-4.2 c-1.2-1.1-3-1.9-5.6-2.4L378.3,68.2z"></path> <path class="st0" d="M458.7,68.2h29.6c2.2,0,3.9,0.5,5.1,1.4c1.2,0.9,1.8,2.3,1.8,4.1c0,0.3-0.1,0.8-0.2,1.5 c-0.1,0.7-0.3,1.4-0.5,2.1l-1.4,6.5c4.1-6.1,7.8-10.2,11-12.4c3.3-2.1,7.3-3.2,12.2-3.2h15.1l-2.1,10.1c-1.2,5.1-2.7,8.4-4.4,9.8 s-4.8,2-9.3,2h-10.9c-4.2,0-7.7,1.2-10.5,3.5c-2.8,2.3-4.7,5.8-5.9,10.2l-14.8,61.8c-0.1,0.3-0.2,0.7-0.3,1.3 c-0.3,1.4-0.5,2.4-0.5,2.9c0,1.7,0.6,3,1.7,4c1.1,0.9,2.7,1.4,4.7,1.4l-0.6,3.8h-28c-2.1,0-3.8-0.6-5-1.8c-1.2-1.2-1.8-2.8-1.8-4.9 c0-0.5,0-1.1,0.1-1.9c0.1-0.7,0.2-1.5,0.4-2.2l20.6-86.5c0.2-0.9,0.3-1.5,0.3-1.9c0-0.4,0-0.7,0-1.1c0-1.8-0.6-3.2-1.8-4.2 c-1.2-1.1-3-1.9-5.6-2.4L458.7,68.2z"></path> <path class="st0" d="M604.9,126.3h-49.3c-1.2,4.7-2.1,8.6-2.6,11.5c-0.5,2.9-0.8,5.2-0.8,6.8c0,5,1.6,8.5,4.9,10.5 c3.3,2,9,3,17.3,3c11.4,0,19.4-0.8,23.9-2.3c4.6-1.5,7.4-4.1,8.7-7.9h3.8c-1,6.6-2.2,12-3.6,16.1c-1.3,4.1-2.9,7-4.6,8.7 c-2.7,2.7-5.9,4.7-9.6,5.8c-3.7,1.1-10.3,1.7-19.8,1.7h-2.2c-18.7,0-31.4-2.1-37.9-6.4c-6.5-4.3-9.8-12-9.8-23.1 c0-4.2,0.8-10.3,2.5-18.3c1.7-8.1,4.2-18.3,7.7-30.8c1.2-4.2,2.6-8.1,4.4-11.7c1.8-3.6,3.7-6.7,5.9-9.3c4-4.7,9.1-8.2,15.3-10.3 c6.1-2.1,14.3-3.2,24.4-3.2c14.4,0,24.8,2.2,31.2,6.6c6.4,4.4,9.6,11.5,9.6,21.4c0,3.6-0.4,7.4-1.2,11.4c-0.8,3.9-1.9,7.4-3.2,10.4 c-1.7,3.7-3.6,6.2-5.7,7.6C611.9,125.7,608.8,126.3,604.9,126.3z M594.9,110.1c0.9-2.5,1.5-4.5,1.9-6.1c0.4-1.6,0.5-3,0.5-4.2 c0-4.3-1.2-7.5-3.7-9.5c-2.4-2-6.2-3.1-11.2-3.1c-5.9,0-10.5,1.7-14,5.2c-3.4,3.5-6.3,9.4-8.6,17.7H594.9z"></path> <path class="st0" d="M643.9,40.5h25.6c2.1,0,3.7,0.4,4.9,1.3c1.2,0.8,2.2,2.3,2.9,4.3l13.6,36.2l19-28.2c0.8-1.2,1.3-2.2,1.7-3 c0.3-0.8,0.5-1.6,0.5-2.4c0-1.2-0.4-2.1-1.2-2.9c-0.8-0.8-1.9-1.3-3.3-1.5l0.8-3.8h26.9c2.5,0,4.3,0.4,5.5,1.1 c1.2,0.7,1.8,1.9,1.8,3.5c0,1-0.2,1.9-0.6,2.8c-0.4,0.9-1.1,2-2,3.1l-38.7,52.6l26.2,64.5c0.6,1.6,1.1,2.8,1.6,3.6 c0.5,0.8,1,1.4,1.5,1.8c0.5,0.5,1.2,0.8,2.1,1.1c0.8,0.3,1.9,0.5,3.2,0.6l-1,3.8h-26c-3.3,0-5.7-0.5-7.2-1.6 c-1.5-1.1-2.8-3.2-4-6.4l-16.8-44.6l-28.2,39.2l-0.2,0.3c-1.6,2.3-2.3,4-2.3,5.1c0,1.2,0.5,2.2,1.5,3c1,0.8,2.3,1.2,3.9,1.2h0.6 l-1,3.8h-28c-3.3,0-5.5-0.3-6.6-0.9c-1.2-0.6-1.8-1.6-1.8-3.1c0-1.2,0.3-2.4,0.9-3.7c0.6-1.3,1.8-3,3.5-5.3l49-63.5l-20-49.8 c-1.3-3.4-2.6-5.6-3.9-6.7c-1.3-1.1-3-1.7-5.1-1.8L643.9,40.5z"></path> </g> </svg>